<svg width="25" height="20" viewBox="0 0 25 20" fill="none" xmlns="http://www.w3.org/2000/svg">
<path d="M12.542 18.8326C12.5288 18.8401 12.5159 18.8474 12.5033 18.8546C12.49 18.847 12.4766 18.8392 12.4628 18.8313C12.1302 18.6393 11.6526 18.3565 11.0785 17.9961C9.92814 17.2742 8.39981 16.2473 6.87656 15.0228C5.34815 13.7941 3.85558 12.3908 2.75303 10.9212C1.64143 9.4396 1 7.98903 1 6.6451C1 3.54916 3.57485 1.0002 6.80002 1.0002V1.00023L6.80764 1.00017C8.77559 0.985175 10.6057 1.95267 11.6671 3.55026L12.4952 4.79669L13.33 3.55475C14.4003 1.96236 16.2284 0.995931 18.1964 1.0002C21.416 1.01615 23.9831 3.55632 24 6.64741C23.9993 8.01802 23.3553 9.48089 22.2461 10.9636C21.1444 12.4364 19.6529 13.8359 18.1253 15.0579C16.6029 16.2759 15.0754 17.2933 13.9256 18.0074C13.3517 18.3638 12.8743 18.6432 12.542 18.8326Z" fill="#364958" stroke="white" stroke-width="2"/>
</svg>
