<svg width="72" height="72" viewBox="0 0 72 72" fill="none" xmlns="http://www.w3.org/2000/svg">
<g clip-path="url(#clip0)">
<path d="M3.56781 72H59.7129C61.6833 72 63.2807 70.4026 63.2807 68.4322V7.42401C63.2807 5.45361 61.6833 3.8562 59.7129 3.8562H3.56781C1.59741 3.8562 0 5.45361 0 7.42401V68.4322C0 70.4026 1.59741 72 3.56781 72Z" fill="#F7BD12"/>
<path d="M59.7134 3.8562H3.56781C1.59741 3.8562 0 5.45361 0 7.42401V8.91815C0 6.9472 1.59741 5.34979 3.56781 5.34979H59.7134C61.6838 5.34979 63.2812 6.9472 63.2812 8.91815V7.42401C63.2812 5.45361 61.6838 3.8562 59.7134 3.8562Z" fill="#FFF7F2"/>
<path d="M59.7134 69.0128H3.56781C1.59741 69.0128 0 67.4149 0 65.4445V68.4316C0 70.4026 1.59741 72 3.56781 72H59.7134C61.6838 72 63.2812 70.4026 63.2812 68.4322V65.4445C63.2812 67.4149 61.6838 69.0128 59.7134 69.0128Z" fill="white"/>
<path d="M50.5986 47.8757H22.3747C21.559 47.8757 20.8987 47.2148 20.8987 46.3997C20.8987 45.5845 21.5595 44.9236 22.3747 44.9236H50.5986C51.4138 44.9236 52.0746 45.5845 52.0746 46.3997C52.0746 47.2148 51.4138 47.8757 50.5986 47.8757Z" fill="#364958"/>
<path d="M50.5986 59.7728H22.3747C21.559 59.7728 20.8987 59.1119 20.8987 58.2968C20.8987 57.4816 21.5595 56.8207 22.3747 56.8207H50.5986C51.4138 56.8207 52.0746 57.4816 52.0746 58.2968C52.0746 59.1119 51.4138 59.7728 50.5986 59.7728Z" fill="#364958"/>
<path d="M9.40161 7.43884C9.40161 8.32983 8.67926 9.05273 7.78772 9.05273C6.89673 9.05273 6.17383 8.32983 6.17383 7.43884C6.17383 6.5473 6.89673 5.82495 7.78772 5.82495C8.67926 5.82495 9.40161 6.5473 9.40161 7.43884Z" fill="#FFF7F2"/>
<path d="M7.78772 7.88708C7.25323 7.88708 6.81982 7.45367 6.81982 6.91919V0.967895C6.81982 0.433411 7.25323 0 7.78772 0C8.3222 0 8.75561 0.433411 8.75561 0.967895V6.91919C8.75561 7.45367 8.32275 7.88708 7.78772 7.88708Z" fill="#364958"/>
<path d="M7.78772 0C7.25323 0 6.81982 0.433411 6.81982 0.967895V2.46149C6.81982 1.927 7.25323 1.49359 7.78772 1.49359C8.3222 1.49359 8.75561 1.927 8.75561 2.46149V0.967895C8.75561 0.433411 8.32275 0 7.78772 0V0Z" fill="#364958"/>
<path d="M21.3278 7.43884C21.3278 8.32983 20.6055 9.05273 19.7145 9.05273C18.8229 9.05273 18.1006 8.32983 18.1006 7.43884C18.1006 6.5473 18.8229 5.82495 19.7145 5.82495C20.6055 5.82495 21.3278 6.5473 21.3278 7.43884Z" fill="#FFF7F2"/>
<path d="M19.7145 7.88708C19.18 7.88708 18.7466 7.45367 18.7466 6.91919V0.967895C18.7466 0.433411 19.18 0 19.7145 0C20.2484 0 20.6818 0.433411 20.6818 0.967895V6.91919C20.6818 7.45367 20.249 7.88708 19.7145 7.88708Z" fill="#364958"/>
<path d="M19.7145 0C19.18 0 18.7466 0.433411 18.7466 0.967895V2.46149C18.7466 1.927 19.1794 1.49359 19.7145 1.49359C20.2484 1.49359 20.6818 1.927 20.6818 2.46149V0.967895C20.6818 0.433411 20.2484 0 19.7145 0V0Z" fill="#364958"/>
<path d="M45.1807 7.43884C45.1807 8.32983 44.4584 9.05273 43.5668 9.05273C42.6758 9.05273 41.9535 8.32983 41.9535 7.43884C41.9535 6.5473 42.6758 5.82495 43.5668 5.82495C44.4584 5.82495 45.1807 6.5473 45.1807 7.43884Z" fill="#FFF7F2"/>
<path d="M43.5668 7.88708C43.0329 7.88708 42.5995 7.45367 42.5995 6.91919V0.967895C42.5995 0.433411 43.0329 0 43.5668 0C44.1013 0 44.5347 0.433411 44.5347 0.967895V6.91919C44.5347 7.45367 44.1013 7.88708 43.5668 7.88708Z" fill="#364958"/>
<path d="M43.5668 0C43.0329 0 42.5995 0.433411 42.5995 0.967895V2.46149C42.5995 1.927 43.0323 1.49359 43.5668 1.49359C44.1013 1.49359 44.5347 1.927 44.5347 2.46149V0.967895C44.5347 0.433411 44.1013 0 43.5668 0V0Z" fill="#364958"/>
<path d="M33.2545 7.43884C33.2545 8.32983 32.5322 9.05273 31.6406 9.05273C30.7491 9.05273 30.0267 8.32983 30.0267 7.43884C30.0267 6.5473 30.7491 5.82495 31.6406 5.82495C32.5322 5.82495 33.2545 6.5473 33.2545 7.43884Z" fill="#FFF7F2"/>
<path d="M31.6406 7.88708C31.1061 7.88708 30.6727 7.45367 30.6727 6.91919V0.967895C30.6727 0.433411 31.1061 0 31.6406 0C32.1751 0 32.6085 0.433411 32.6085 0.967895V6.91919C32.6085 7.45367 32.1751 7.88708 31.6406 7.88708Z" fill="#364958"/>
<path d="M31.6406 0C31.1061 0 30.6727 0.433411 30.6727 0.967895V2.46149C30.6727 1.927 31.1061 1.49359 31.6406 1.49359C32.1751 1.49359 32.6085 1.927 32.6085 2.46149V0.967895C32.6085 0.433411 32.1751 0 31.6406 0V0Z" fill="#364958"/>
<path d="M57.1074 7.43884C57.1074 8.32983 56.3845 9.05273 55.4935 9.05273C54.602 9.05273 53.8796 8.32983 53.8796 7.43884C53.8796 6.5473 54.602 5.82495 55.4935 5.82495C56.3845 5.82495 57.1074 6.5473 57.1074 7.43884Z" fill="#FFF7F2"/>
<path d="M55.4935 7.88708C54.959 7.88708 54.5256 7.45367 54.5256 6.91919V0.967895C54.5256 0.433411 54.959 0 55.4935 0C56.028 0 56.4614 0.433411 56.4614 0.967895V6.91919C56.4614 7.45367 56.028 7.88708 55.4935 7.88708Z" fill="#364958"/>
<path d="M55.493 0C54.9586 0 54.5251 0.433411 54.5251 0.967895V2.46149C54.5251 1.927 54.9586 1.49359 55.493 1.49359C56.0275 1.49359 56.4609 1.927 56.4609 2.46149V0.967895C56.4615 0.433411 56.0281 0 55.493 0V0Z" fill="#364958"/>
<path d="M72 63.9822H65.6334V19.8177H72V63.9822Z" fill="#ED254E"/>
<path d="M72 65.623H65.6334V63.9827H72V65.623Z" fill="#F7BD12"/>
<path d="M65.6334 65.6224H72V68.8167C72 70.5751 70.5751 72 68.8167 72C67.0589 72 65.6334 70.5751 65.6334 68.8167V65.6224Z" fill="#364958"/>
<path d="M68.8167 69.1875C67.0589 69.1875 65.6334 67.7626 65.6334 66.0042V68.8167C65.6334 70.5751 67.0589 72 68.8167 72C70.5751 72 72 70.5751 72 68.8167V66.0042C72 67.7626 70.5751 69.1875 68.8167 69.1875Z" fill="#364958"/>
<path d="M65.6334 19.8149L68.5816 11.5895C68.6607 11.3687 68.9727 11.3687 69.0518 11.5895L72 19.8149H65.6334Z" fill="#F7BD12"/>
<path d="M67.2249 15.3743H70.4081L69.0519 11.5895C68.9728 11.3687 68.6602 11.3687 68.5811 11.5895L67.2249 15.3743Z" fill="#5861C7"/>
<path d="M67.2249 15.3743H70.4081L69.0519 11.5895C68.9728 11.3687 68.6602 11.3687 68.5811 11.5895L67.2249 15.3743Z" fill="#364958"/>
<path d="M68.4678 12.9957C68.5854 12.7749 69.0479 12.7749 69.1649 12.9957L70.3685 15.2628L69.0518 11.5895C68.9727 11.3687 68.6606 11.3687 68.5815 11.5895L67.2654 15.2617L68.4678 12.9957Z" fill="#364958"/>
<path d="M14.118 46.3991C14.118 47.2143 13.4572 47.8751 12.642 47.8751C11.8268 47.8751 11.166 47.2143 11.166 46.3991C11.166 45.5839 11.8268 44.9231 12.642 44.9231C13.4572 44.9231 14.118 45.5839 14.118 46.3991Z" fill="#364958"/>
<path d="M14.118 58.2968C14.118 59.1119 13.4572 59.7728 12.642 59.7728C11.8268 59.7728 11.166 59.1119 11.166 58.2968C11.166 57.4816 11.8268 56.8207 12.642 56.8207C13.4572 56.8207 14.118 57.4816 14.118 58.2968Z" fill="#364958"/>
<path d="M26.2876 16.1834C30.0911 16.1439 31.6385 18.7103 31.6385 18.7103C31.6385 18.7103 33.1343 16.2224 36.9383 16.1834C40.7418 16.1439 43.6147 19.3282 43.646 22.2951C43.6767 25.2614 43.2373 27.3867 37.7617 32.0482C35.8391 33.6852 34.223 34.8481 33.1645 35.5594C32.3487 36.1077 31.2891 36.1187 30.4624 35.5875C29.389 34.8981 27.7493 33.7687 25.7932 32.1724C20.222 27.6251 19.7386 25.5097 19.7079 22.5428C19.6777 19.5765 22.4841 16.2224 26.2876 16.1834Z" fill="#ED254E"/>
<path d="M46.5369 30.2761C46.5369 33.4254 43.9837 35.9786 40.8345 35.9786C37.6852 35.9786 35.1326 33.4254 35.1326 30.2761C35.1326 27.1269 37.6852 24.5742 40.8345 24.5742C43.9837 24.5742 46.5369 27.1269 46.5369 30.2761Z" fill="#364958"/>
<path d="M43.2466 29.2527H41.858V27.8641C41.858 27.2988 41.3998 26.8407 40.8346 26.8407C40.2693 26.8407 39.8112 27.2988 39.8112 27.8641V29.2527H38.4225C37.8573 29.2527 37.3992 29.7109 37.3992 30.2761C37.3992 30.8414 37.8573 31.3 38.4225 31.3H39.8112V32.6882C39.8112 33.2534 40.2693 33.7115 40.8346 33.7115C41.3998 33.7115 41.858 33.2534 41.858 32.6882V31.3H43.2466C43.8119 31.3 44.27 30.8414 44.27 30.2761C44.27 29.7109 43.8119 29.2527 43.2466 29.2527Z" fill="white"/>
</g>
<defs>
<clipPath id="clip0">
<rect width="72" height="72" fill="white"/>
</clipPath>
</defs>
</svg>
