<svg width="25" height="30" viewBox="0 0 25 30" fill="none" xmlns="http://www.w3.org/2000/svg">
<path d="M24.6194 5.36611L19.4211 0.36601C19.4208 0.365776 19.4206 0.365659 19.4204 0.365425C19.3903 0.336537 19.3587 0.309174 19.3258 0.283216C19.3108 0.271322 19.295 0.261009 19.2795 0.249876C19.261 0.236575 19.2429 0.222806 19.2237 0.210442C19.2052 0.198547 19.186 0.188235 19.167 0.177336C19.1495 0.167317 19.1326 0.156828 19.1146 0.14757C19.0953 0.137609 19.0754 0.129172 19.0556 0.120207C19.0369 0.11171 19.0185 0.102745 18.9994 0.0950695C18.9802 0.0874523 18.9606 0.0812413 18.9411 0.0745615C18.9206 0.0674716 18.9003 0.0599129 18.8794 0.053819C18.8599 0.0481354 18.84 0.0439752 18.8203 0.039229C18.799 0.0340141 18.7778 0.0282718 18.7561 0.0241116C18.7332 0.0197756 18.7102 0.0171389 18.6872 0.0139748C18.6683 0.0113966 18.6497 0.00788096 18.6304 0.00606453C18.5451 -0.00202151 18.4592 -0.00202151 18.3739 0.00606453C18.3547 0.00788096 18.336 0.011338 18.317 0.0139748C18.2941 0.0171389 18.271 0.019717 18.2482 0.0241116C18.2264 0.0282718 18.2053 0.0340141 18.1839 0.039229C18.1642 0.0439752 18.1444 0.0481354 18.1249 0.053819C18.104 0.0599129 18.0837 0.0674716 18.0632 0.0745615C18.0437 0.0812999 18.0241 0.0874523 18.0049 0.0950695C17.9857 0.102687 17.9674 0.11171 17.9487 0.120207C17.9289 0.129172 17.909 0.137609 17.8896 0.14757C17.8717 0.156828 17.8547 0.167317 17.8373 0.177336C17.8183 0.188235 17.7991 0.198547 17.7806 0.210442C17.7613 0.222806 17.7433 0.236575 17.7248 0.249876C17.7093 0.261009 17.6935 0.271322 17.6784 0.283216C17.6455 0.309174 17.6139 0.336537 17.5839 0.365425C17.5836 0.365659 17.5834 0.365776 17.5832 0.36601L12.3849 5.36605C11.8774 5.8542 11.8774 6.6457 12.3849 7.13385C12.8924 7.622 13.7153 7.622 14.2228 7.13385L17.2026 4.2677V18.7501C17.2026 19.4405 17.7844 20.0001 18.5022 20.0001C19.2199 20.0001 19.8017 19.4405 19.8017 18.7501V4.26776L22.7815 7.13391C23.289 7.62206 24.1119 7.62206 24.6194 7.13391C25.1269 6.6457 25.1269 5.85426 24.6194 5.36611Z" fill="white"/>
<path d="M10.7773 22.8663L7.79747 25.7324V11.25C7.79747 10.5597 7.21564 10 6.4979 10C5.78017 10 5.19834 10.5597 5.19834 11.25V25.7324L2.21853 22.8663C1.71102 22.3781 0.88814 22.3781 0.380631 22.8663C-0.126877 23.3544 -0.126877 24.1459 0.380631 24.6341L5.57895 29.6341C5.5792 29.6343 5.57944 29.6345 5.57968 29.6348C5.60972 29.6636 5.64133 29.6909 5.67417 29.7169C5.68921 29.7288 5.70511 29.7391 5.72059 29.7503C5.73905 29.7636 5.75714 29.7774 5.77633 29.7897C5.79485 29.8016 5.81404 29.8119 5.83304 29.8228C5.85046 29.8329 5.86746 29.8433 5.88537 29.8525C5.90474 29.8625 5.92466 29.8709 5.94446 29.8799C5.9631 29.8884 5.9815 29.8974 6.00063 29.905C6.01982 29.9126 6.03943 29.9188 6.05893 29.9255C6.07946 29.9326 6.09968 29.9401 6.12064 29.9462C6.14013 29.9519 6.15993 29.9561 6.17967 29.9608C6.20105 29.966 6.22219 29.9718 6.244 29.9759C6.26684 29.9803 6.28987 29.9829 6.31283 29.986C6.33178 29.9886 6.35048 29.9921 6.36967 29.9939C6.45496 30.002 6.54091 30.002 6.6262 29.9939C6.64539 29.9921 6.66403 29.9887 6.68303 29.986C6.706 29.9829 6.72909 29.9803 6.75187 29.9759C6.77368 29.9717 6.79476 29.966 6.81614 29.9608C6.83588 29.956 6.85567 29.9519 6.87517 29.9462C6.89612 29.9401 6.91641 29.9325 6.93688 29.9254C6.95637 29.9187 6.97599 29.9125 6.99518 29.9049C7.0143 29.8973 7.03264 29.8883 7.05128 29.8799C7.07108 29.8709 7.09106 29.8624 7.11043 29.8524C7.12828 29.8432 7.14528 29.8327 7.16264 29.8228C7.18165 29.8119 7.2009 29.8015 7.21942 29.7896C7.2386 29.7773 7.25664 29.7635 7.27503 29.7503C7.29057 29.7391 7.30647 29.7287 7.32158 29.7168C7.35417 29.6911 7.38554 29.6639 7.41539 29.6353C7.41588 29.6349 7.41636 29.6345 7.41679 29.634L12.6151 24.634C13.1226 24.1459 13.1226 23.3544 12.6151 22.8662C12.1076 22.3781 11.2848 22.3781 10.7773 22.8663Z" fill="white"/>
</svg>
