<svg width="58" height="58" viewBox="0 0 58 58" fill="none" xmlns="http://www.w3.org/2000/svg">
<g clip-path="url(#clip0)">
<path d="M55.8185 2.81635H37.0465C35.8417 2.81635 34.865 3.79314 34.865 4.99801V10.7512C35.2701 10.8564 35.6623 11.039 36.0189 11.3039C37.5025 12.4063 37.8115 14.5028 36.7091 15.9865L34.8651 18.4679V25.1218H40.3016V24.9838C40.3016 23.0528 42.5329 21.962 44.0568 23.1488L50.0465 27.8143C51.2413 28.745 51.2432 30.5521 50.0465 31.4843L44.0568 36.1498C42.5334 37.3363 40.3016 36.2464 40.3016 34.3148V34.1768H34.8651V53.002C34.8651 54.2069 35.8419 55.1837 37.0467 55.1837H55.8186C57.0235 55.1837 58.0001 54.2069 58.0001 53.002V4.99801C58 3.79314 57.0233 2.81635 55.8185 2.81635Z" fill="white"/>
<path d="M26.4398 12.0748C28.2894 10.2251 28.2894 7.22628 26.4398 5.37664C24.5901 3.527 21.5913 3.527 19.7416 5.37664C17.892 7.22628 17.892 10.2251 19.7416 12.0748C21.5913 13.9244 24.5901 13.9244 26.4398 12.0748Z" fill="white"/>
<path d="M35.3039 12.266C34.3517 11.5583 33.0059 11.7566 32.2983 12.709L28.0624 18.409L23.9679 17.009L26.0592 17.2801C25.7537 16.248 24.8717 15.4359 23.7364 15.276L17.8633 14.4635C16.668 14.2982 15.452 14.5397 14.4105 15.149L7.47961 19.2051C6.77641 19.6173 6.36722 20.392 6.42294 21.2052L7.09312 30.9763C7.17437 32.1614 8.20177 33.0542 9.38327 32.9725C10.5669 32.8914 11.4608 31.866 11.3795 30.6824L10.8003 22.2386L13.6248 20.5825L12.085 30.9933C12.0093 31.5049 11.9539 32.0194 11.919 32.5355L11.4312 39.7379L2.13982 41.3407C0.73682 41.5828 -0.204341 42.9163 0.0377013 44.3195C0.279743 45.7223 1.61319 46.6637 3.01642 46.4216L14.3046 44.4741C15.4764 44.272 16.358 43.2943 16.4383 42.1078L16.9709 34.244L20.0204 34.7447L22.9747 41.0119L24.2289 52.8763C24.3783 54.2896 25.6445 55.3185 27.0636 55.1689C28.4794 55.0192 29.5059 53.7501 29.3562 52.3343L28.0561 40.0362C28.0257 39.7491 27.9474 39.4691 27.8243 39.208L24.3106 31.7539L25.5473 22.8145L22.5776 21.0743L28.1559 22.9818C29.0436 23.2853 30.0203 22.9773 30.5753 22.2304L35.7466 15.2714C36.4545 14.3193 36.2562 12.9736 35.3039 12.266Z" fill="white"/>
<path d="M41.6712 32.8071V34.3148C41.6712 35.1117 42.5874 35.5578 43.2148 35.0691L49.2045 30.4036C49.696 30.0208 49.696 29.2778 49.2045 28.895L43.2148 24.2295C42.5881 23.7414 41.6712 24.1863 41.6712 24.9838V26.4916H33.5729C33.0103 26.4916 32.5542 26.9477 32.5542 27.5103V31.7883C32.5542 32.3509 33.0103 32.807 33.5729 32.807H41.6712V32.8071Z" fill="white"/>
</g>
<defs>
<clipPath id="clip0">
<rect width="58" height="58" fill="white"/>
</clipPath>
</defs>
</svg>
